<svg width="243" height="68" viewBox="0 0 243 68" fill="none" xmlns="http://www.w3.org/2000/svg">
<path d="M240.08 65.7699C236.63 66.3099 232.43 67.2799 219.59 67.2799C205.59 67.2799 194.69 63.4999 194.69 45.1699V22.4899C194.69 4.15989 205.58 0.379883 219.6 0.379883C232.43 0.379883 236.6 1.37988 240.09 1.88988C241.7 2.10988 242.24 2.64988 242.24 4.15988V11.0599C242.237 11.6293 242.01 12.1746 241.607 12.5773C241.205 12.9799 240.659 13.2073 240.09 13.2099H218.09C211.84 13.2099 209.57 15.3699 209.57 22.4899V26.7999H238.79C239.081 26.7931 239.371 26.8453 239.641 26.9533C239.912 27.0613 240.158 27.223 240.364 27.4285C240.571 27.634 240.733 27.8792 240.843 28.1492C240.952 28.4193 241.005 28.7086 241 28.9999V36.7699C240.997 37.341 240.769 37.8879 240.364 38.2908C239.959 38.6937 239.411 38.9199 238.84 38.9199H209.57V45.2199C209.57 52.3399 211.83 54.4999 218.09 54.4999H240.09C240.661 54.4999 241.209 54.7261 241.614 55.129C242.019 55.5319 242.247 56.0788 242.25 56.6499V63.5499C242.24 64.9999 241.7 65.5499 240.08 65.7699Z" fill="white"/>
<path d="M113.3 4.06007L102.66 63.8401C102.581 64.3812 102.322 64.8799 101.925 65.2555C101.527 65.6312 101.015 65.8618 100.47 65.9101H99.38C99.1699 65.912 98.9618 65.8704 98.7686 65.7878C98.5755 65.7053 98.4015 65.5836 98.2578 65.4304C98.114 65.2772 98.0035 65.096 97.9333 64.898C97.8632 64.7 97.8348 64.4896 97.85 64.2801V63.8401L108.5 4.06007C108.58 3.5223 108.839 3.02707 109.234 2.6536C109.629 2.28014 110.139 2.05002 110.68 2.00007H111.78C111.99 1.99802 112.197 2.03965 112.39 2.12231C112.583 2.20497 112.756 2.32685 112.899 2.48018C113.042 2.63352 113.152 2.81495 113.221 3.01292C113.29 3.2109 113.317 3.42108 113.3 3.63007V4.06007Z" fill="white"/>
<path d="M86.05 3.82006L77.24 57.1801C76.24 63.9701 73.15 65.9101 67.54 65.9101H61.72C56.87 65.9101 54.28 63.5401 52.77 57.2901L44.25 30.4701C44.04 29.4701 44.04 29.2801 43.6 29.2801C43.16 29.2801 43.07 29.4901 42.85 30.4701L34.33 57.2901C32.82 63.5401 30.23 65.9101 25.38 65.9101H19.56C13.95 65.9101 10.83 63.9701 9.86 57.1801L0.860001 3.82006V3.50006C0.876179 3.28206 0.936044 3.06953 1.03603 2.87514C1.13602 2.68074 1.27409 2.50844 1.44203 2.3685C1.60997 2.22855 1.80434 2.12381 2.01358 2.06052C2.22282 1.99722 2.44265 1.97666 2.66 2.00006H14.09C14.5803 2.04171 15.0379 2.26261 15.3756 2.62052C15.7132 2.97842 15.907 3.44822 15.92 3.94006L22.58 51.2601C22.69 52.2601 22.69 52.8801 23.12 52.8801C23.55 52.8801 23.55 52.2301 23.77 51.2601L33 22.1601C33.65 19.5801 35.15 17.3101 39.79 17.3101H47.23C51.87 17.3101 53.38 19.5801 54.02 22.1601L63.3 51.2501C63.51 52.2501 63.51 52.8701 63.94 52.8701C64.37 52.8701 64.37 52.2201 64.48 51.2501L71 3.93006C71.0143 3.44622 71.2036 2.98398 71.5327 2.62907C71.8619 2.27416 72.3086 2.05068 72.79 2.00006H84.22C84.4405 1.97232 84.6643 1.98994 84.8777 2.05184C85.0911 2.11375 85.2896 2.21863 85.4609 2.36005C85.6323 2.50147 85.773 2.67643 85.8743 2.8742C85.9756 3.07196 86.0354 3.28835 86.05 3.51006V3.82006Z" fill="white"/>
<path d="M178.33 1.99995H177C176.484 2.069 176.006 2.30973 175.643 2.6834C175.28 3.05707 175.054 3.54193 175 4.05995L165.1 60.4599C164.971 60.8387 164.698 61.1513 164.34 61.33H164.26C163.94 61.26 163.83 60.9799 163.73 60.5999L145.92 5.39995C145.604 4.34298 144.933 3.42744 144.02 2.80797C143.108 2.18851 142.009 1.9031 140.91 1.99995H140.46H140.26C138.09 2.22995 135.6 3.63995 134.9 7.30995L124.85 63.8399V64.2799C124.833 64.4889 124.86 64.6991 124.929 64.8971C124.998 65.0951 125.108 65.2765 125.251 65.4298C125.394 65.5832 125.567 65.7051 125.76 65.7877C125.953 65.8704 126.16 65.912 126.37 65.91H127.46C128.005 65.8617 128.517 65.631 128.915 65.2554C129.312 64.8798 129.571 64.3811 129.65 63.8399L139.71 7.29995C139.721 7.13676 139.778 6.98015 139.876 6.8489C139.974 6.71764 140.107 6.61731 140.26 6.55995V6.55995H140.36H140.46C140.665 6.57777 140.86 6.6584 141.017 6.79083C141.174 6.92326 141.287 7.10105 141.34 7.29995L159.16 62.3899C160.03 65.1099 161.45 65.8799 164.16 65.8799H164.24C166.95 65.8799 169.32 63.88 169.96 60.43L179.86 4.02995V3.58995C179.879 3.38154 179.853 3.17151 179.783 2.97407C179.714 2.77664 179.603 2.59642 179.458 2.44564C179.313 2.29485 179.137 2.17701 178.942 2.10012C178.748 2.02322 178.539 1.98906 178.33 1.99995Z" fill="white"/>
</svg>
